<svg xmlns="http://www.w3.org/2000/svg" xmlns:xlink="http://www.w3.org/1999/xlink" width="441.767" height="661.146" viewBox="0 0 441.767 661.146">
  <defs>
    <linearGradient id="linear-gradient" x1="1" y1="0.084" x2="0.638" y2="0.815" gradientUnits="objectBoundingBox">
      <stop offset="0" stop-color="#181743" stop-opacity="0"/>
      <stop offset="1" stop-color="#254dde" stop-opacity="0.4"/>
    </linearGradient>
    <linearGradient id="linear-gradient-2" x1="1" y1="0.084" x2="0.638" y2="0.815" gradientUnits="objectBoundingBox">
      <stop offset="0" stop-color="#fea64c" stop-opacity="0.149"/>
      <stop offset="0.372" stop-color="#fe1e9a" stop-opacity="0.4"/>
      <stop offset="1" stop-color="#254dde" stop-opacity="0.4"/>
    </linearGradient>
  </defs>
  <g id="background" transform="translate(12.7 9)">
    <path id="Path_6" data-name="Path 6" d="M346.7.3V0C353.327,0,360,5.373,360,12l11.9,566.1c0,6.627-.673,18.7-7.3,18.7L0,599.2c-6.627,0,0,6.627,0,0V458.3C1.3,298.4,157.871,286.77,252.2,197,327.823,125.032,343.757.3,346.7.3Z" transform="translate(0 50)" opacity="0.31" fill="url(#linear-gradient)"/>
    <path id="Path_7" data-name="Path 7" d="M420.554-46.2c83.8,11.6-33-13.8-33-13.8,6.944,0-5.7,49.473-5.7,56.1l10.9,599.9c0,6.627-9.056,0-16,0L12.141,590c-6.944,0,0,6.627,0,0,0,0,167.822,27.95,209.024-98.5S80.654,147,172.154,21.5C220.854-40.6,336.754-57.8,420.554-46.2Z" transform="translate(-21.754 51)" opacity="0.31" fill="url(#linear-gradient-2)"/>
  </g>
</svg>
